<svg xmlns="http://www.w3.org/2000/svg" version="1.1" xmlns:xlink="http://www.w3.org/1999/xlink" xmlns:svgjs="http://svgjs.com/svgjs" width="1440" height="560" preserveAspectRatio="none" viewBox="0 0 1440 560"><g mask="url(&quot;#SvgjsMask1001&quot;)" fill="none"><rect width="1440" height="560" x="0" y="0" fill="rgba(82, 43, 32, 1)"></rect><path d="M0,354.239C74.731,375.234,160.497,393.067,228.153,355.013C296.284,316.692,320.224,231.961,347.585,158.737C373.331,89.833,390.127,18.203,381.29,-54.821C372.32,-128.945,343.62,-199.045,297.211,-257.535C249.433,-317.751,189.632,-373.456,114.737,-390.759C41.382,-407.706,-31.516,-374.305,-102.75,-349.935C-171.01,-326.583,-246.241,-308.721,-290.834,-252.009C-334.774,-196.128,-331.048,-119.397,-339.524,-48.816C-347.798,20.083,-376.023,96.002,-339.73,155.149C-303.603,214.027,-217.964,211.497,-158.366,246.423C-102.13,279.379,-62.752,336.609,0,354.239" fill="#42221a"></path><path d="M1440 975.248C1517.462 972.559 1590.927 936.869 1649.8 886.4549999999999 1704.2930000000001 839.7909999999999 1722.28 767.6179999999999 1756.2559999999999 704.4300000000001 1793.027 636.044 1875.349 575.549 1857.617 499.956 1839.561 422.98199999999997 1737.161 405.09299999999996 1674.677 356.651 1626.309 319.153 1585.009 277.596 1531.8 247.358 1463.914 208.779 1396.293 133.99599999999998 1321.331 155.849 1246.402 177.692 1243.777 286.702 1193.132 346.087 1143.079 404.778 1052.57 427.78999999999996 1027.267 500.658 1000.961 576.413 1023.472 662.083 1058.324 734.306 1092.762 805.672 1153.6190000000001 859.052 1220.626 901.352 1287.223 943.393 1361.29 977.98 1440 975.248" fill="#623426"></path></g><defs><mask id="SvgjsMask1001"><rect width="1440" height="560" fill="#ffffff"></rect></mask></defs></svg>